<?xml version="1.0" standalone="no"?>
<!DOCTYPE svg PUBLIC "-//W3C//DTD SVG 20010904//EN"
 "http://www.w3.org/TR/2001/REC-SVG-20010904/DTD/svg10.dtd">
<svg version="1.0" xmlns="http://www.w3.org/2000/svg"
 width="900.000000pt" height="900.000000pt" viewBox="0 0 900.000000 900.000000"
 preserveAspectRatio="xMidYMid meet">
<metadata>
Created by potrace 1.10, written by Peter Selinger 2001-2011
</metadata>
<g transform="translate(0.000000,900.000000) scale(0.100000,-0.100000)"
fill="#000000" stroke="none">
<path d="M3765 7220 c-129 -11 -253 -48 -390 -116 -108 -53 -110 -54 -205
-125 -90 -67 -204 -187 -280 -292 -35 -49 -66 -80 -85 -88 -88 -33 -116 -44
-175 -73 -86 -41 -239 -156 -321 -242 -199 -209 -309 -492 -309 -798 0 -125
-1 -133 -26 -170 -35 -50 -111 -199 -130 -251 -31 -85 -52 -185 -64 -300 -24
-249 36 -502 169 -715 36 -57 136 -179 158 -193 8 -5 13 -29 13 -62 0 -93 66
-319 106 -366 8 -8 14 -19 14 -23 0 -16 91 -125 145 -174 60 -55 140 -105 215
-136 25 -10 60 -24 78 -32 18 -8 39 -14 48 -14 27 0 78 -32 135 -84 105 -96
210 -168 289 -200 25 -10 60 -24 78 -32 18 -8 41 -14 52 -14 10 0 45 -7 77
-15 75 -20 277 -20 358 0 102 24 106 23 166 -54 25 -32 26 -35 13 -75 -27 -85
-57 -151 -101 -221 -7 -11 -15 -27 -19 -35 -27 -55 -172 -225 -273 -321 -90
-84 -122 -122 -127 -145 -18 -94 72 -174 149 -131 81 45 252 206 336 317 128
167 241 395 301 605 5 17 18 62 30 100 11 39 24 93 29 120 5 28 14 63 20 78 6
16 11 40 11 55 0 15 6 59 14 97 39 188 102 667 136 1040 9 99 19 186 41 360 6
50 15 136 20 193 5 57 12 109 16 116 5 8 49 51 98 97 219 203 358 361 461 528
21 35 47 75 56 90 9 14 26 46 38 71 20 43 20 46 4 83 -18 40 -57 67 -96 67
-38 0 -81 -34 -123 -96 -44 -65 -197 -270 -241 -323 -16 -19 -50 -60 -76 -90
-26 -31 -48 -59 -48 -63 0 -5 -7 -8 -15 -8 -20 0 -20 67 1 162 25 112 25 669
1 828 -43 271 -56 306 -124 328 -43 14 -83 0 -112 -39 -25 -33 -25 -56 -3
-194 28 -178 35 -256 39 -473 4 -168 2 -237 -6 -245 -9 -9 -31 8 -89 68 -43
44 -103 109 -133 145 -29 36 -56 67 -59 70 -18 17 -70 90 -70 98 0 16 -87 91
-113 97 -49 13 -127 -55 -127 -109 0 -23 50 -115 93 -171 72 -93 160 -190 310
-339 l160 -159 -12 -116 c-6 -64 -18 -168 -26 -231 -26 -212 -37 -314 -45
-415 -11 -135 -24 -195 -43 -195 -11 0 -40 37 -72 89 -10 18 -54 79 -168 237
-87 119 -124 141 -186 109 -67 -34 -65 -119 5 -227 95 -146 270 -369 376 -482
32 -34 32 -32 13 -156 -8 -52 -15 -114 -15 -137 0 -23 -5 -45 -11 -48 -6 -4
-54 35 -107 87 -96 93 -183 168 -205 178 -7 3 -30 17 -52 31 -22 14 -92 47
-155 74 -138 59 -206 103 -281 182 -194 203 -262 416 -215 673 22 118 87 342
116 399 4 9 22 52 40 96 17 44 38 93 46 108 8 16 14 35 14 44 0 8 6 27 14 41
28 55 62 171 76 257 5 33 14 75 19 93 14 46 25 363 17 444 -6 57 -12 71 -40
99 -30 29 -108 80 -146 95 -8 3 -26 11 -40 18 -14 7 -37 16 -52 20 -51 12 -37
46 50 126 89 81 149 122 242 167 126 61 224 90 344 102 152 15 269 -8 431 -84
123 -59 146 -65 192 -54 21 5 101 9 178 9 185 0 289 -26 460 -115 188 -97 371
-258 471 -415 55 -87 124 -222 124 -244 0 -8 4 -17 9 -21 5 -3 13 -20 16 -38
4 -17 13 -52 20 -77 8 -25 17 -67 20 -94 7 -50 24 -74 95 -131 125 -100 195
-177 287 -316 47 -71 107 -205 120 -269 2 -14 12 -47 21 -75 25 -75 24 -440
-1 -545 -31 -130 -56 -212 -93 -295 -76 -175 -178 -364 -212 -395 -16 -15 -59
-44 -94 -65 -70 -41 -276 -195 -342 -255 -172 -156 -318 -319 -444 -495 -60
-84 -92 -97 -92 -36 0 16 -7 48 -15 71 -8 23 -15 54 -15 69 0 14 -6 55 -14 91
-15 66 -43 236 -50 300 -2 19 -9 67 -16 105 l-13 70 78 115 c96 143 102 150
133 150 14 0 53 7 86 16 141 36 183 47 221 59 22 7 72 23 110 35 108 33 138
51 158 93 17 34 18 41 5 75 -11 27 -26 43 -60 60 -43 22 -47 22 -94 7 -49 -16
-120 -37 -204 -61 -25 -7 -64 -18 -88 -25 -23 -7 -45 -9 -48 -6 -4 3 24 68 61
144 71 146 82 171 110 243 10 25 23 59 30 75 13 29 29 73 54 145 7 19 17 52
22 73 5 21 13 45 18 55 5 9 16 44 26 77 9 33 24 79 31 101 8 23 16 65 17 94 2
46 -1 55 -26 76 -33 28 -91 32 -124 9 -26 -18 -67 -107 -93 -200 -5 -16 -18
-55 -30 -85 -12 -30 -25 -68 -30 -85 -5 -16 -18 -55 -30 -85 -37 -97 -51 -135
-57 -155 -3 -11 -9 -24 -13 -30 -4 -5 -26 -53 -48 -105 -67 -158 -247 -505
-264 -508 -8 -2 -18 5 -22 14 -4 9 -11 105 -16 213 -5 108 -14 213 -20 233
-22 78 -103 102 -162 49 l-33 -29 3 -179 c1 -98 9 -223 17 -278 7 -55 21 -154
30 -220 9 -66 23 -153 31 -193 8 -40 14 -88 14 -108 0 -19 7 -67 15 -107 8
-40 22 -108 31 -152 85 -446 144 -679 211 -835 8 -19 21 -48 28 -65 12 -28 76
-157 99 -200 75 -137 217 -293 381 -421 61 -47 106 -59 147 -38 71 35 96 97
62 152 -9 15 -41 47 -71 72 -87 72 -248 242 -289 306 -78 119 -164 294 -164
331 0 22 14 45 53 86 l52 56 125 -15 c176 -20 340 -2 465 52 152 65 240 123
357 233 81 76 135 111 173 111 20 0 195 84 244 117 198 133 316 332 337 568 7
90 18 117 64 160 17 17 53 59 80 95 228 308 239 799 25 1155 -22 36 -24 52
-25 151 0 194 -62 411 -154 547 -14 21 -26 41 -26 45 0 17 -150 169 -219 221
-71 53 -175 121 -186 121 -17 0 -87 54 -94 73 -63 163 -105 246 -180 357 -55
80 -186 211 -267 267 -65 44 -172 100 -241 127 -227 86 -291 95 -345 47 -58
-52 -39 -137 40 -184 42 -25 91 -45 142 -57 73 -18 182 -69 280 -133 56 -36
142 -120 197 -192 33 -44 110 -184 124 -225 4 -14 17 -50 29 -80 12 -30 24
-64 27 -75 10 -35 36 -56 128 -101 110 -55 113 -57 200 -121 163 -119 272
-286 306 -468 24 -126 28 -177 23 -267 l-7 -97 45 -68 c42 -63 69 -115 98
-188 15 -38 40 -203 40 -266 0 -172 -57 -336 -170 -489 -76 -103 -67 -99 -236
-110 -82 -5 -176 -16 -209 -25 -33 -8 -63 -15 -67 -15 -14 0 -9 31 11 69 18
34 29 59 65 144 9 21 16 44 16 52 0 8 6 29 14 47 14 34 34 120 61 268 34 190
7 490 -61 673 -52 140 -64 166 -121 265 -78 135 -214 291 -330 381 -24 18 -43
41 -43 50 0 10 -6 37 -14 62 -7 24 -21 71 -30 104 -22 73 -30 94 -92 220 -146
299 -443 560 -779 687 -157 60 -371 88 -514 69 l-88 -12 -69 35 c-73 37 -143
64 -184 73 -14 2 -45 11 -70 18 -57 17 -221 24 -325 15z m-685 -839 c30 -13
70 -26 88 -31 64 -16 65 -19 59 -180 -5 -135 -12 -198 -39 -310 -6 -25 -14
-61 -18 -80 -5 -19 -14 -51 -20 -70 -22 -61 -42 -114 -56 -147 -8 -18 -21 -50
-30 -70 -9 -21 -22 -51 -30 -66 -8 -16 -14 -36 -14 -46 0 -9 -6 -25 -14 -36
-7 -11 -16 -31 -19 -45 -5 -23 -10 -39 -42 -130 -41 -114 -75 -304 -75 -420 0
-99 22 -241 46 -298 8 -18 14 -40 14 -50 0 -9 7 -26 15 -36 8 -11 15 -26 15
-33 0 -7 22 -50 49 -95 79 -132 221 -275 337 -338 21 -11 46 -25 54 -30 8 -5
47 -23 85 -40 156 -69 200 -96 323 -197 81 -66 253 -237 268 -266 15 -28 14
-44 -18 -207 -5 -30 -12 -68 -14 -85 -14 -90 -15 -95 -32 -95 -10 0 -52 45
-97 103 -136 173 -415 439 -505 480 -8 4 -28 16 -45 27 -16 10 -61 34 -100 53
-62 30 -90 42 -183 78 -40 16 -214 49 -255 49 -44 0 -155 24 -237 50 -73 24
-208 95 -230 120 -3 3 -23 19 -44 36 -102 76 -214 235 -268 379 -46 121 -64
341 -37 439 6 21 14 59 19 85 16 91 71 211 148 323 l53 77 -7 121 c-17 299 74
545 278 748 79 80 138 122 238 172 36 18 77 39 92 46 14 8 33 14 41 14 8 0 28
7 43 15 36 20 92 15 164 -14z m3590 -2561 c13 -8 12 -16 -5 -67 -37 -112 -66
-165 -126 -230 -91 -100 -185 -155 -378 -220 -43 -14 -75 -37 -150 -108 -101
-95 -172 -150 -231 -179 -98 -48 -218 -76 -367 -83 -94 -5 -113 -3 -113 8 0
31 269 317 411 438 100 85 108 91 189 146 230 158 413 240 610 275 30 6 73 14
95 19 22 5 42 9 45 10 3 0 12 -4 20 -9z m-4195 -203 c106 -44 246 -72 410 -83
83 -6 178 -38 275 -94 25 -15 52 -29 60 -33 24 -11 49 -28 135 -91 99 -74 390
-360 381 -375 -5 -7 -66 -11 -180 -11 -145 0 -183 3 -235 20 -121 38 -208 94
-336 215 -58 55 -99 79 -160 95 -202 54 -350 167 -424 322 -22 46 -21 74 3 65
6 -3 38 -16 71 -30z"/>
</g>
</svg>
